<svg width="600" height="393" viewBox="0 0 600 393" fill="none" xmlns="http://www.w3.org/2000/svg">
<path d="M423.676 -20.7426C446.153 -11.7877 475.518 10.8248 490.846 30.9832C499.46 42.3114 512.947 67.9469 513.043 73.1746C513.059 74.0079 513.649 75.4516 514.356 76.3856C515.062 77.3217 515.64 79.4128 515.64 81.038C515.64 82.661 516.055 84.7652 516.563 85.7145C520.911 93.8404 520.927 134.07 516.585 145.396C516.064 146.75 515.64 148.758 515.64 149.856C515.64 150.952 515.089 152.994 514.413 154.392C507.072 169.587 513.973 188.917 538.43 221.661C554.215 242.799 553.297 248.668 532.589 258.916C524.757 262.792 521.624 264.198 520.609 266.526C519.866 268.231 520.26 270.431 520.776 274.459C522.497 287.887 521.353 294.777 516.477 300.328C513.402 303.83 513.367 304.292 515.679 310.495C516.934 313.86 517.657 315.578 517.306 317.037C516.889 318.768 514.959 320.134 510.609 323.455C506.194 326.825 503.795 328.471 502.356 330.728C500.432 333.747 500.223 337.861 499.202 348.655C496.967 372.287 493.043 377.847 474.518 383.606C468.192 385.575 445.438 385.256 435.146 383.055C399.681 375.474 378.755 379.975 357.872 399.672C347.907 409.073 342.662 417.451 334.558 436.909C332.668 441.446 328.424 456.07 328.416 458.085C328.409 459.146 328.002 460.917 327.51 462.022C327.018 463.129 326.121 470.246 325.515 477.841C324.799 486.842 324.33 490.346 325.773 492.654C326.882 494.429 329.12 495.498 333.245 497.815C343.276 503.45 355.762 508.216 360.491 508.216C361.565 508.216 364.71 508.807 367.481 509.529C373.201 511.018 385.535 511.2 391.4 509.878C393.565 509.391 397.305 508.654 399.711 508.242C410.038 506.475 421.248 502.715 430.772 497.824C444.051 491.004 448.056 487.496 488.32 447.443C660.517 276.143 674.669 261.882 679.365 254.924C710.966 208.104 706.042 155.591 666.169 114.202C637.769 84.7215 451.665 -100.46 446.571 -104.307M423.676 -20.7426L423.861 -21.2071C446.426 -12.217 475.863 10.4534 491.244 30.6806C495.576 36.3766 501.116 45.6452 505.581 54.1338C507.816 58.3805 509.786 62.4419 511.206 65.7738C511.915 67.4393 512.49 68.9289 512.891 70.1718C513.288 71.4015 513.53 72.4334 513.543 73.1654C513.549 73.4919 513.675 73.9945 513.903 74.5531C514.128 75.1026 514.432 75.6576 514.755 76.0839L514.755 76.0844C515.163 76.6255 515.505 77.4519 515.745 78.3204C515.987 79.198 516.14 80.1723 516.14 81.038C516.14 81.8115 516.239 82.7104 516.401 83.5321C516.566 84.3633 516.785 85.0694 517.004 85.4788C517.581 86.5567 518.068 88.1286 518.479 90.0424C518.892 91.9648 519.235 94.2655 519.508 96.8219C520.056 101.935 520.33 108.098 520.333 114.355C520.335 120.612 520.065 126.974 519.522 132.484C518.98 137.981 518.163 142.676 517.052 145.575L517.051 145.575C516.546 146.889 516.14 148.835 516.14 149.856C516.14 150.468 515.989 151.303 515.762 152.141C515.534 152.987 515.217 153.877 514.863 154.61C511.266 162.055 511.135 170.541 514.968 181.278C518.807 192.031 526.61 205.001 538.83 221.362C542.78 226.652 545.706 231.012 547.537 234.738C549.368 238.463 550.134 241.609 549.688 244.45C549.241 247.304 547.587 249.758 544.78 252.126C541.98 254.488 537.995 256.798 532.811 259.364C532.249 259.642 531.711 259.908 531.197 260.161C528.603 261.441 526.615 262.423 525.092 263.274C523.26 264.297 522.173 265.095 521.535 265.935C520.918 266.746 520.689 267.64 520.699 268.951C520.706 270.068 520.885 271.433 521.123 273.249C521.17 273.613 521.22 273.994 521.272 274.395C522.997 287.856 521.878 294.937 516.853 300.658C515.292 302.436 514.646 303.303 514.557 304.438C514.511 305.016 514.61 305.699 514.877 306.646C515.145 307.594 515.568 308.766 516.148 310.32C516.249 310.591 516.346 310.852 516.441 311.104C516.982 312.546 517.41 313.69 517.656 314.639C517.948 315.768 518.003 316.705 517.644 317.621C517.294 318.517 516.575 319.322 515.497 320.26C514.576 321.061 513.344 321.999 511.767 323.201C511.493 323.41 511.208 323.627 510.912 323.852C510.342 324.288 509.806 324.694 509.303 325.075C507.519 326.426 506.145 327.468 505.056 328.436C503.676 329.664 502.792 330.745 502.16 332.14C501.522 333.55 501.127 335.312 500.782 337.932C500.512 339.977 500.276 342.515 499.973 345.779C499.888 346.695 499.798 347.667 499.7 348.702C498.583 360.512 497.038 367.936 493.377 373.121C489.699 378.33 483.944 381.199 474.666 384.084C473.025 384.595 470.365 384.946 467.178 385.159C463.978 385.373 460.205 385.449 456.312 385.394C448.536 385.285 440.235 384.655 435.042 383.544C417.344 379.761 403.324 379.004 391.146 381.623C378.979 384.24 368.606 390.236 358.215 400.036C348.321 409.37 343.109 417.677 335.019 437.102C334.086 439.341 332.56 444.106 331.261 448.582C330.613 450.816 330.025 452.968 329.598 454.685C329.385 455.544 329.213 456.29 329.095 456.881C328.973 457.486 328.916 457.89 328.916 458.088C328.909 459.227 328.483 461.066 327.967 462.226C327.926 462.316 327.867 462.508 327.795 462.82C327.725 463.123 327.649 463.512 327.569 463.978C327.408 464.909 327.232 466.131 327.051 467.561C326.691 470.419 326.316 474.09 326.014 477.881C325.941 478.792 325.871 479.646 325.806 480.448C325.584 483.155 325.412 485.258 325.354 486.946C325.278 489.139 325.399 490.551 325.813 491.618C326.216 492.66 326.918 493.426 328.14 494.273C329.097 494.936 330.333 495.622 331.944 496.517C332.425 496.784 332.939 497.07 333.49 497.38C338.483 500.184 344.09 502.774 349.034 504.662C351.507 505.605 353.807 506.371 355.779 506.901C357.759 507.432 359.375 507.716 360.491 507.716C361.08 507.716 362.179 507.873 363.442 508.11C364.72 508.35 366.21 508.681 367.607 509.045C370.409 509.774 374.875 510.191 379.394 510.258C383.911 510.324 388.415 510.038 391.29 509.391C393.464 508.901 397.213 508.162 399.627 507.75C409.902 505.991 421.064 502.247 430.543 497.379C443.738 490.603 447.684 487.16 487.967 447.089C574.067 361.438 620.653 315.049 646.301 289.203C671.97 263.336 676.636 258.073 678.951 254.644C694.694 231.318 701.325 206.599 699.072 182.573C696.819 158.547 685.678 135.173 665.809 114.549C651.614 99.8135 597.992 46.1527 547.278 -4.31053C521.921 -29.5409 497.294 -53.97 478.687 -72.3318C469.384 -81.5128 461.586 -89.1763 455.955 -94.6646C453.14 -97.4089 450.867 -99.6084 449.219 -101.181C447.556 -102.769 446.558 -103.69 446.269 -103.908L446.571 -104.307M423.676 -20.7426C420.6 -21.9675 416.904 -23.503 415.46 -24.1571M423.676 -20.7426L423.861 -21.2071C420.787 -22.4316 417.099 -23.9636 415.667 -24.6125L415.666 -24.6126C413.108 -25.7696 408.487 -27.4729 404.138 -28.9388C399.806 -30.3988 395.666 -31.65 394.096 -31.8766L394.024 -31.3818M446.571 -104.307L446.269 -103.908C443.146 -106.267 436.461 -110.228 431.426 -112.695C426.375 -115.171 421.453 -117.591 420.493 -118.071C419.575 -118.53 417.641 -119.224 416.214 -119.601C414.767 -119.984 411.221 -120.915 408.335 -121.668L408.334 -121.668C405.526 -122.401 399.401 -123.399 393.423 -124.195C387.434 -124.992 381.684 -125.573 379.607 -125.493L379.607 -125.493C378.188 -125.439 374.467 -125.063 371.341 -124.657C366.036 -123.966 361.565 -123.262 358.129 -122.586C354.671 -121.905 352.316 -121.262 351.2 -120.708M446.571 -104.307C443.414 -106.691 436.699 -110.668 431.646 -113.144C426.594 -115.62 421.674 -118.039 420.716 -118.518C419.758 -118.997 417.79 -119.702 416.342 -120.084C414.894 -120.467 411.348 -121.399 408.461 -122.151C402.776 -123.637 383.845 -126.156 379.588 -125.992L351.2 -120.708M351.2 -120.708C350.519 -120.37 349.705 -120.067 348.941 -119.847C348.185 -119.631 347.436 -119.484 346.892 -119.484C346.49 -119.484 345.835 -119.363 345.087 -119.146C344.349 -118.933 343.564 -118.639 342.913 -118.319L342.912 -118.319C341.544 -117.648 338.061 -116.031 335.173 -114.725L334.967 -115.18L335.173 -114.725C327.847 -111.413 319.079 -105.496 309.919 -97.6606L309.594 -98.0405L309.919 -97.6605C305.244 -93.6633 290.497 -79.1551 276.899 -65.4467C270.105 -58.5969 263.605 -51.9543 258.805 -46.9354C256.404 -44.4255 254.431 -42.3243 253.059 -40.8072C252.373 -40.0479 251.841 -39.4397 251.483 -39.0019C251.35 -38.8398 251.245 -38.7052 251.166 -38.5976C251.352 -38.543 251.628 -38.4971 251.991 -38.4678C252.818 -38.4014 253.968 -38.4303 255.217 -38.5405C256.463 -38.6504 257.787 -38.8394 258.957 -39.0858C260.14 -39.3349 261.121 -39.6341 261.709 -39.9485C262.226 -40.2263 263.098 -40.4505 264.042 -40.6069C265.004 -40.7663 266.104 -40.8651 267.116 -40.8651C269.025 -40.8651 272.845 -41.4226 275.582 -42.1058C283.712 -44.1418 296.491 -45.1507 309.667 -45.1482C322.849 -45.1457 336.482 -44.131 346.33 -42.0972C349.633 -41.4157 353.596 -40.8651 355.127 -40.8651C356.773 -40.8651 360.61 -40.2632 363.666 -39.5415L363.666 -39.5414C366.708 -38.8203 370.969 -37.8611 373.129 -37.4072C377.529 -36.4863 381.596 -35.5429 384.668 -34.7482C386.204 -34.351 387.497 -33.9897 388.46 -33.6858C388.941 -33.534 389.346 -33.3947 389.661 -33.2707C389.957 -33.1541 390.228 -33.0309 390.395 -32.8999M351.2 -120.708L415.46 -24.1571M415.46 -24.1571C410.392 -26.4494 397.054 -30.9443 394.024 -31.3818M415.46 -24.1571L394.024 -31.3818M394.024 -31.3818L394.096 -31.8767C393.275 -31.9949 392.433 -32.1773 391.742 -32.3747C391.396 -32.4734 391.094 -32.5741 390.854 -32.6701C390.604 -32.7702 390.458 -32.8512 390.395 -32.8999M390.395 -32.8999C390.395 -32.8999 390.395 -32.8999 390.395 -32.9L390.087 -32.5061L390.395 -32.8999ZM41.5559 20.2545L41.5563 20.2541C41.8997 19.8348 42.2051 19.3212 42.426 18.8282C42.6193 18.3969 42.7693 17.9339 42.7976 17.5391C42.826 17.4992 42.8677 17.4442 42.9253 17.3723C43.0709 17.1906 43.2928 16.932 43.591 16.5972C44.186 15.9292 45.0666 14.9781 46.2042 13.7736C48.4784 11.3656 51.7691 7.95564 55.832 3.79411C63.9575 -4.52839 75.1659 -15.8512 87.496 -28.1648C110.192 -50.8315 122.627 -63.129 130.684 -70.2908C138.72 -77.4353 142.365 -79.4386 147.483 -81.5292C151.101 -83.0053 153.992 -83.4742 160.097 -83.5351C165.175 -83.584 168.821 -83.1971 172.449 -81.9039C176.086 -80.6075 179.741 -78.3882 184.817 -74.7124C186.447 -73.5319 190.097 -70.1982 194.679 -65.8034C199.247 -61.4207 204.712 -56.0123 209.955 -50.7088C215.198 -45.405 220.216 -40.2092 223.892 -36.2514C225.73 -34.2717 227.229 -32.6064 228.251 -31.394C228.764 -30.7864 229.149 -30.301 229.397 -29.9508C229.489 -29.8196 229.557 -29.7148 229.604 -29.6346C229.602 -29.6323 229.6 -29.63 229.597 -29.6277C229.499 -29.5303 229.354 -29.4033 229.16 -29.2483C228.774 -28.9395 228.225 -28.5447 227.552 -28.09C226.207 -27.1819 224.389 -26.0525 222.425 -24.923C201.27 -12.7655 179.764 7.51288 165.79 28.477C163.041 32.6013 160.278 36.9091 158.202 40.2686C157.164 41.9479 156.296 43.3934 155.686 44.462C155.382 44.9955 155.139 45.4404 154.971 45.7758C154.887 45.9428 154.818 46.0899 154.769 46.211C154.744 46.2713 154.722 46.3322 154.705 46.3901C154.694 46.4253 154.68 46.4783 154.673 46.5399C154.665 46.5656 154.65 46.6049 154.629 46.66C154.585 46.776 154.517 46.9413 154.428 47.1528C154.25 47.5748 153.991 48.1661 153.67 48.8847C153.029 50.3211 152.143 52.2576 151.17 54.3469C140.404 77.4337 137.409 93.8822 136.536 134.391L137.036 134.402L136.536 134.392C136.411 140.224 136.249 145.525 136.088 149.366C136.007 151.287 135.927 152.84 135.853 153.91C135.829 154.259 135.805 154.553 135.783 154.791C135.604 154.65 135.387 154.47 135.132 154.253C134.385 153.616 133.343 152.677 132.044 151.475C129.447 149.071 125.839 145.628 121.553 141.477C112.98 133.175 101.7 122.047 90.3707 110.746C79.0415 99.4441 67.6652 87.9709 58.9008 78.9787C54.5184 74.4823 50.7906 70.6079 48.0488 67.6859C46.6777 66.2248 45.5552 65.0039 44.7214 64.0637C43.8771 63.1115 43.3547 62.4756 43.1588 62.1696C39.3887 56.2809 37.283 47.8556 36.9871 39.8385C36.6905 31.8002 38.2178 24.3215 41.5559 20.2545ZM49.877 139.206L49.7438 138.724L49.877 139.206C51.9883 138.622 53.8952 138.413 55.8892 138.725C57.8867 139.038 60.008 139.881 62.5366 141.456C67.6131 144.618 74.2332 150.666 84.666 161.05C92.78 169.127 98.8402 175.165 102.96 180.122C107.086 185.086 109.197 188.888 109.522 192.488C109.845 196.066 108.414 199.558 105.151 203.93C101.886 208.307 96.8506 213.481 90.0896 220.42L89.443 221.083C80.9706 229.779 74.6161 236.301 69.3571 240.73C63.9587 245.278 59.7996 247.544 55.7781 247.748C51.7691 247.952 47.7703 246.112 42.6759 242.109C37.7075 238.205 31.7819 232.314 23.8722 224.45L23.2687 223.85C15.6523 216.279 9.96854 210.546 6.17527 205.726C2.38075 200.904 0.540453 197.07 0.500661 193.301C0.460888 189.532 2.21894 185.712 5.91017 180.912C9.60092 176.114 15.1628 170.413 22.6196 162.883C31.0276 154.394 36.8647 148.737 41.1061 145.062C45.3637 141.374 47.9546 139.738 49.877 139.206ZM252.923 46.8302C258.936 40.6121 265.002 34.802 270.148 30.2584C275.312 25.6987 279.504 22.4567 281.785 21.3281C283.656 20.4019 285.321 19.9218 287.094 20.0165C288.87 20.1115 290.812 20.7871 293.226 22.2787C298.078 25.2762 304.678 31.4642 315.445 42.3847C322.091 49.125 327.051 54.2107 330.38 58.4505C333.712 62.6935 335.349 66.014 335.458 69.2211C335.567 72.4194 334.16 75.6186 331.118 79.6287C328.075 83.6404 323.457 88.3875 317.254 94.6815C309.71 102.337 304.037 108.053 299.33 111.915C294.617 115.781 290.949 117.721 287.42 117.934C283.905 118.147 280.411 116.653 276.029 113.35C271.644 110.045 266.45 104.995 259.537 98.2125C252.717 91.5226 247.597 86.3064 244.072 81.9002C240.543 77.4902 238.66 73.9486 238.235 70.6109C237.814 67.2954 238.823 64.0939 241.284 60.3352C243.752 56.5647 247.647 52.2865 252.923 46.8302ZM163.107 204.042C188.147 179.143 200.704 166.663 208.512 159.864C212.412 156.469 215.108 154.507 217.569 153.127C220.029 151.746 222.269 150.937 225.292 149.856C235.707 146.133 249.3 149.164 261.141 157.993C261.846 158.519 263.791 160.298 266.695 163.059C269.586 165.806 273.399 169.499 277.822 173.824C286.668 182.474 297.949 193.648 309.157 204.844C320.365 216.039 331.499 227.253 340.051 235.982C344.327 240.346 347.956 244.088 350.626 246.895C351.962 248.298 353.055 249.466 353.869 250.361C354.692 251.265 355.208 251.866 355.407 252.149C365.306 266.217 365.383 286.779 355.588 301.012C354.648 302.377 352.48 304.891 349.362 308.275C346.252 311.65 342.22 315.866 337.572 320.624C328.277 330.141 316.526 341.819 304.783 353.259C293.039 364.699 281.306 375.899 272.046 384.46C267.416 388.74 263.407 392.358 260.325 395.016C258.784 396.345 257.478 397.43 256.445 398.237C255.398 399.055 254.666 399.558 254.258 399.753C249.614 401.97 243.158 403.219 236.773 403.414C230.384 403.609 224.146 402.748 219.927 400.812C218.428 400.124 215.72 398.168 212.072 395.188C208.443 392.222 203.931 388.281 198.844 383.669C188.67 374.445 176.211 362.549 163.944 350.428C151.676 338.307 139.605 325.965 130.206 315.85C125.506 310.792 121.478 306.295 118.429 302.662C115.366 299.013 113.329 296.279 112.569 294.731L108.861 287.182L108.945 275.757C108.979 271.179 109.075 268.203 109.303 266.157C109.531 264.114 109.884 263.056 110.394 262.278C110.808 261.647 111.184 260.945 111.459 260.316C111.596 260.001 111.711 259.699 111.792 259.428C111.871 259.166 111.929 258.903 111.931 258.677C111.932 258.434 112.067 257.995 112.471 257.284C112.864 256.592 113.476 255.704 114.346 254.586C116.085 252.35 118.815 249.237 122.779 244.99C130.704 236.499 143.523 223.518 163.107 204.042Z" stroke="#006793"/>
</svg>
