<svg width="10" height="10" viewBox="0 0 10 10" fill="none" xmlns="http://www.w3.org/2000/svg">
<path d="M8.67467 9.59168H1.66634C1.44533 9.59168 1.23337 9.50389 1.07709 9.34761C0.920805 9.19133 0.833008 8.97937 0.833008 8.75835V1.75835C0.833008 1.53734 0.920805 1.32538 1.07709 1.1691C1.23337 1.01282 1.44533 0.925018 1.66634 0.925018C1.88735 0.925018 2.09932 1.01282 2.2556 1.1691C2.41188 1.32538 2.49967 1.53734 2.49967 1.75835V7.92502H8.65801C8.87902 7.92502 9.09098 8.01282 9.24726 8.1691C9.40354 8.32538 9.49134 8.53734 9.49134 8.75835C9.49134 8.97936 9.40354 9.19133 9.24726 9.34761C9.09098 9.50389 8.87902 9.59168 8.65801 9.59168H8.67467Z" fill="#F1416C"/>
<path opacity="0.3" d="M1.6663 9.59167C1.50078 9.59264 1.33873 9.54428 1.20079 9.45278C1.06286 9.36128 0.955301 9.23078 0.891829 9.07791C0.828357 8.92504 0.811847 8.75673 0.844405 8.59444C0.876963 8.43215 0.957114 8.28323 1.07464 8.16667L8.07464 1.16667C8.23077 1.01147 8.44198 0.924347 8.66214 0.924347C8.88229 0.924347 9.0935 1.01147 9.24964 1.16667C9.32775 1.24414 9.38974 1.33631 9.43205 1.43786C9.47435 1.53941 9.49614 1.64833 9.49614 1.75834C9.49614 1.86835 9.47435 1.97727 9.43205 2.07882C9.38974 2.18037 9.32775 2.27254 9.24964 2.35001L2.27464 9.34167C2.1955 9.42243 2.10076 9.48625 1.99618 9.52923C1.8916 9.57221 1.77936 9.59345 1.6663 9.59167Z" fill="#F1416C"/>
</svg>
