<svg width="10" height="10" viewBox="0 0 10 10" fill="none" xmlns="http://www.w3.org/2000/svg">
<path d="M8.50033 9.33334C8.27931 9.33334 8.06735 9.24554 7.91107 9.08926C7.75479 8.93298 7.66699 8.72102 7.66699 8.50001V2.33334H1.50033C1.27931 2.33334 1.06735 2.24554 0.91107 2.08926C0.754789 1.93298 0.666992 1.72102 0.666992 1.50001C0.666992 1.27899 0.754789 1.06703 0.91107 0.910749C1.06735 0.754469 1.27931 0.666672 1.50033 0.666672H8.50033C8.72134 0.666672 8.9333 0.754469 9.08958 0.910749C9.24586 1.06703 9.33366 1.27899 9.33366 1.50001V8.50001C9.33366 8.72102 9.24586 8.93298 9.08958 9.08926C8.9333 9.24554 8.72134 9.33334 8.50033 9.33334Z" fill="#50CD89"/>
<path opacity="0.3" d="M1.50074 9.33334C1.33593 9.33265 1.17502 9.2831 1.03837 9.19096C0.901717 9.09883 0.795453 8.96824 0.733015 8.81571C0.670577 8.66318 0.654769 8.49557 0.68759 8.33406C0.720411 8.17255 0.800387 8.02439 0.917405 7.90834L7.90907 0.916668C8.23407 0.583335 9.4174 1.75 9.08407 2.09167L2.0924 9.08333C2.01523 9.16208 1.92319 9.22472 1.82163 9.26763C1.72006 9.31054 1.61099 9.33288 1.50074 9.33334Z" fill="#50CD89"/>
</svg>
