<svg width="30" height="30" viewBox="0 0 30 30" fill="none" xmlns="http://www.w3.org/2000/svg">
<path opacity="0.3" d="M15 27.5C21.9036 27.5 27.5 21.9036 27.5 15C27.5 8.09644 21.9036 2.5 15 2.5C8.09644 2.5 2.5 8.09644 2.5 15C2.5 21.9036 8.09644 27.5 15 27.5Z" fill="#3F4254"/>
<path d="M20.3 17.6623C20.3082 18.4328 20.091 19.1888 19.675 19.8373C19.2224 20.5044 18.5895 21.0289 17.85 21.3498C16.9491 21.73 15.9774 21.9132 15 21.8873C13.8709 21.9293 12.7504 21.675 11.75 21.1498C11.1512 20.7945 10.6456 20.3017 10.275 19.7123C9.92335 19.1989 9.72401 18.5966 9.69999 17.9748C9.69089 17.8203 9.71274 17.6655 9.76426 17.5196C9.81577 17.3736 9.89592 17.2394 9.99999 17.1248C10.1123 17.0108 10.2468 16.921 10.3951 16.8608C10.5434 16.8006 10.7025 16.7713 10.8625 16.7748C11.1302 16.7719 11.3891 16.8701 11.5875 17.0498C11.8143 17.2787 11.9854 17.5567 12.0875 17.8623C12.2372 18.2329 12.4214 18.5886 12.6375 18.9248C12.8505 19.2275 13.1393 19.4689 13.475 19.6248C13.9156 19.8335 14.4003 19.9322 14.8875 19.9123C15.5816 19.9441 16.2669 19.7465 16.8375 19.3498C17.0678 19.1959 17.2567 18.9877 17.3875 18.7436C17.5183 18.4994 17.587 18.2268 17.5875 17.9498C17.5951 17.752 17.5624 17.5548 17.4915 17.37C17.4206 17.1852 17.3129 17.0168 17.175 16.8748C16.9177 16.5994 16.6015 16.3858 16.25 16.2498C15.8125 16.0998 15.25 15.9498 14.525 15.7748C13.6788 15.6054 12.8532 15.3456 12.0625 14.9998C11.4472 14.7285 10.9161 14.2968 10.525 13.7498C10.1511 13.1844 9.96717 12.5144 9.99999 11.8373C9.98726 11.14 10.1975 10.4568 10.6 9.88732C11.0248 9.28881 11.6159 8.82811 12.3 8.56232C13.1629 8.24104 14.0795 8.08828 15 8.11232C15.7199 8.09661 16.4376 8.19793 17.125 8.41232C17.6694 8.58269 18.1749 8.8588 18.6125 9.22482C18.9738 9.51208 19.2681 9.87466 19.475 10.2873C19.6521 10.6182 19.7464 10.987 19.75 11.3623C19.7521 11.6824 19.6313 11.9911 19.4125 12.2248C19.3091 12.3492 19.179 12.4486 19.0318 12.5157C18.8846 12.5828 18.7242 12.6158 18.5625 12.6123C18.305 12.6309 18.0501 12.5504 17.85 12.3873C17.6486 12.1551 17.4764 11.899 17.3375 11.6248C17.1282 11.178 16.8306 10.7783 16.4625 10.4498C15.9757 10.1047 15.3816 9.94513 14.7875 9.99982C14.1899 9.96887 13.5983 10.131 13.1 10.4623C12.91 10.5775 12.7521 10.7386 12.6407 10.9309C12.5293 11.1231 12.468 11.3402 12.4625 11.5623C12.4561 11.8086 12.5308 12.0501 12.675 12.2498C12.8369 12.4576 13.0415 12.6281 13.275 12.7498C13.5212 12.8883 13.7809 13.0014 14.05 13.0873L15.3 13.4248C15.9931 13.5849 16.6773 13.781 17.35 14.0123C17.9015 14.1941 18.4236 14.4552 18.9 14.7873C19.3221 15.0834 19.6654 15.4782 19.9 15.9373C20.1719 16.4711 20.3093 17.0633 20.3 17.6623Z" fill="#3F4254"/>
<path d="M15 23.3998C14.8748 23.4082 14.7492 23.3915 14.6307 23.3505C14.5121 23.3095 14.4029 23.2452 14.3097 23.1613C14.2164 23.0773 14.141 22.9755 14.0878 22.8619C14.0346 22.7483 14.0047 22.6252 14 22.4998L14.125 7.49979C14.125 7.37726 14.1493 7.25595 14.1966 7.1429C14.2439 7.02985 14.3131 6.92732 14.4003 6.84126C14.4876 6.7552 14.591 6.68733 14.7047 6.64158C14.8184 6.59584 14.94 6.57314 15.0625 6.57479C15.309 6.57477 15.5456 6.67182 15.721 6.84494C15.8965 7.01807 15.9967 7.25332 16 7.49979L15.875 22.4998C15.869 22.7323 15.7757 22.9541 15.6135 23.1209C15.4514 23.2877 15.2323 23.3873 15 23.3998Z" fill="#3F4254"/>
</svg>
