<svg width="26" height="26" viewBox="0 0 26 26" fill="none" xmlns="http://www.w3.org/2000/svg">
<path opacity="0.3" d="M18.0875 0.5H7.95C3.83548 0.5 0.5 3.83548 0.5 7.95V18.05C0.5 22.1645 3.83548 25.5 7.95 25.5H18.0875C22.202 25.5 25.5375 22.1645 25.5375 18.05V7.95C25.5375 3.83548 22.202 0.5 18.0875 0.5Z" fill="#A1A5B7"/>
<path d="M7.475 16.6125C7.3547 16.6137 7.23534 16.5912 7.12379 16.5461C7.01224 16.5011 6.91069 16.4344 6.825 16.35C6.64944 16.1742 6.55083 15.9359 6.55083 15.6875C6.55083 15.439 6.64944 15.2007 6.825 15.025L9.8125 11.9C10.1608 11.5484 10.6271 11.3386 11.1212 11.3108C11.6153 11.2831 12.1021 11.4396 12.4875 11.75L14.425 13.325C14.4355 13.3359 14.4481 13.3446 14.4621 13.3506C14.476 13.3566 14.4911 13.3596 14.5063 13.3596C14.5214 13.3596 14.5365 13.3566 14.5504 13.3506C14.5644 13.3446 14.577 13.3359 14.5875 13.325L17.875 9.69996C18.0508 9.52439 18.2891 9.42578 18.5375 9.42578C18.7859 9.42578 19.0242 9.52439 19.2 9.69996C19.3756 9.87574 19.4742 10.114 19.4742 10.3625C19.4742 10.6109 19.3756 10.8492 19.2 11.025L15.925 14.6125C15.5804 14.9879 15.1062 15.2186 14.5981 15.2581C14.09 15.2975 13.5859 15.1427 13.1875 14.825L11.2625 13.25C11.252 13.239 11.2394 13.2303 11.2254 13.2243C11.2115 13.2183 11.1964 13.2153 11.1813 13.2153C11.1661 13.2153 11.151 13.2183 11.1371 13.2243C11.1231 13.2303 11.1105 13.239 11.1 13.25L8.1 16.375C7.92617 16.5253 7.70482 16.6094 7.475 16.6125Z" fill="#A1A5B7"/>
</svg>
