<svg width="26" height="26" viewBox="0 0 26 26" fill="none" xmlns="http://www.w3.org/2000/svg">
<path opacity="0.3" d="M18.0875 0.5H7.95C3.83548 0.5 0.5 3.83548 0.5 7.95V18.05C0.5 22.1645 3.83548 25.5 7.95 25.5H18.0875C22.202 25.5 25.5375 22.1645 25.5375 18.05V7.95C25.5375 3.83548 22.202 0.5 18.0875 0.5Z" fill="#A1A5B7"/>
<path d="M13.475 22.1748C13.2264 22.1748 12.9879 22.076 12.8121 21.9002C12.6363 21.7244 12.5375 21.4859 12.5375 21.2373V16.0498C12.5375 15.8012 12.6363 15.5627 12.8121 15.3869C12.9879 15.2111 13.2264 15.1123 13.475 15.1123C13.7236 15.1123 13.9621 15.2111 14.1379 15.3869C14.3137 15.5627 14.4125 15.8012 14.4125 16.0498V21.2373C14.4093 21.4849 14.3095 21.7215 14.1343 21.8966C13.9592 22.0718 13.7226 22.1716 13.475 22.1748Z" fill="#A1A5B7"/>
<path d="M7.45 22.1749C7.20237 22.1717 6.96579 22.0719 6.79067 21.8967C6.61555 21.7216 6.51574 21.485 6.5125 21.2374V17.6499C6.5125 17.4013 6.61127 17.1628 6.78709 16.987C6.9629 16.8112 7.20136 16.7124 7.45 16.7124C7.69864 16.7124 7.9371 16.8112 8.11291 16.987C8.28873 17.1628 8.3875 17.4013 8.3875 17.6499V21.2374C8.3875 21.486 8.28873 21.7245 8.11291 21.9003C7.9371 22.0761 7.69864 22.1749 7.45 22.1749Z" fill="#A1A5B7"/>
<path d="M19.4125 22.1749C19.1649 22.1717 18.9283 22.0719 18.7532 21.8967C18.578 21.7216 18.4782 21.485 18.475 21.2374V12.7124C18.475 12.4638 18.5738 12.2253 18.7496 12.0495C18.9254 11.8737 19.1639 11.7749 19.4125 11.7749C19.6611 11.7749 19.8996 11.8737 20.0754 12.0495C20.2512 12.2253 20.35 12.4638 20.35 12.7124V21.2374C20.35 21.486 20.2512 21.7245 20.0754 21.9003C19.8996 22.0761 19.6611 22.1749 19.4125 22.1749Z" fill="#A1A5B7"/>
<path d="M19.4125 8.96259C19.2873 8.96263 19.1633 8.93758 19.0479 8.88891C18.9325 8.84024 18.828 8.76894 18.7406 8.67922C18.6532 8.5895 18.5847 8.48318 18.5391 8.36653C18.4934 8.24989 18.4717 8.12529 18.475 8.00009V6.00009H16.5C16.2514 6.00009 16.0129 5.90131 15.8371 5.7255C15.6613 5.54968 15.5625 5.31123 15.5625 5.06259C15.5625 4.81395 15.6613 4.57549 15.8371 4.39967C16.0129 4.22386 16.2514 4.12509 16.5 4.12509H19.4125C19.5361 4.1234 19.6587 4.1465 19.7732 4.19302C19.8877 4.23954 19.9918 4.30853 20.0792 4.39593C20.1666 4.48332 20.2355 4.58734 20.2821 4.70184C20.3286 4.81634 20.3517 4.93901 20.35 5.06259V8.00009C20.3551 8.12574 20.3345 8.25111 20.2896 8.36854C20.2446 8.48598 20.1761 8.59301 20.0884 8.68309C20.0006 8.77318 19.8955 8.84442 19.7792 8.89248C19.663 8.94053 19.5382 8.96439 19.4125 8.96259Z" fill="#A1A5B7"/>
<path d="M7.7625 13.1002C7.51813 13.1003 7.28339 13.0049 7.10827 12.8345C6.93316 12.664 6.83152 12.432 6.825 12.1877C6.81825 12.0648 6.83643 11.9417 6.87847 11.826C6.92051 11.7103 6.98553 11.6043 7.06961 11.5144C7.1537 11.4245 7.25511 11.3525 7.36774 11.3028C7.48037 11.2531 7.6019 11.2267 7.725 11.2252C7.9875 11.2252 14.05 10.9502 18.65 4.51268C18.7989 4.32288 19.0152 4.19778 19.254 4.16339C19.4927 4.129 19.7355 4.18796 19.9319 4.32801C20.1283 4.46807 20.2632 4.67844 20.3085 4.91538C20.3537 5.15231 20.3059 5.39758 20.175 5.60018C15 12.8252 8.075 13.1002 7.775 13.1002H7.7625Z" fill="#A1A5B7"/>
</svg>
