<svg width="30" height="30" viewBox="0 0 30 30" fill="none" xmlns="http://www.w3.org/2000/svg">
    <path opacity="0.3" d="M15 27.5C21.9036 27.5 27.5 21.9036 27.5 15C27.5 8.09644 21.9036 2.5 15 2.5C8.09644 2.5 2.5 8.09644 2.5 15C2.5 21.9036 8.09644 27.5 15 27.5Z" fill="#A1A5B7"/>
    <path fill-rule="evenodd" clip-rule="evenodd" d="M19.6667 12.3219H17.3C17.5373 11.917 17.6638 11.4565 17.6667 10.987H19.6667C19.6667 10.2497 19.0697 9.65203 18.3333 9.65203H17.3C16.8213 8.83509 15.946 8.33325 15 8.33325C14.054 8.33325 13.1787 8.83509 12.7 9.65203H11C9.89543 9.65203 9 10.5485 9 11.6545V20.3316C9 21.0689 9.59695 21.6666 10.3333 21.6666H19.6667C20.403 21.6666 21 21.0689 21 20.3316V13.6569C21 12.9196 20.403 12.3219 19.6667 12.3219ZM15 9.65203C15.7364 9.65203 16.3333 10.2497 16.3333 10.987C16.3333 11.7243 15.7364 12.3219 15 12.3219C14.2636 12.3219 13.6667 11.7243 13.6667 10.987C13.6667 10.2497 14.2636 9.65203 15 9.65203ZM12.3333 10.987H11C10.6318 10.987 10.3333 11.2858 10.3333 11.6545C10.3333 12.0231 10.6318 12.3219 11 12.3219H12.7C12.4627 11.917 12.3362 11.4565 12.3333 10.987ZM19.6667 14.9918H15C14.6318 14.9918 14.3333 15.2907 14.3333 15.6593V18.3292C14.3333 18.6978 14.6318 18.9967 15 18.9967H19.6667V20.3316H10.3333V13.6569H19.6667V14.9918ZM17 17.328V16.6605C17 16.4762 16.8508 16.3268 16.6667 16.3268H16C15.8159 16.3268 15.6667 16.4762 15.6667 16.6605V17.328C15.6667 17.5123 15.8159 17.6617 16 17.6617H16.6667C16.8508 17.6617 17 17.5123 17 17.328Z" fill="#A1A5B7"/>
</svg>
