<svg width="26" height="26" viewBox="0 0 26 26" fill="none" xmlns="http://www.w3.org/2000/svg">
<path opacity="0.3" d="M13 25.5C19.9036 25.5 25.5 19.9036 25.5 13C25.5 6.09644 19.9036 0.5 13 0.5C6.09644 0.5 0.5 6.09644 0.5 13C0.5 19.9036 6.09644 25.5 13 25.5Z" fill="#3E97FF"/>
<path d="M14.7624 13.0001L18.2999 9.46261C18.4308 9.35055 18.537 9.21266 18.6121 9.05758C18.6871 8.9025 18.7293 8.73358 18.7359 8.56143C18.7426 8.38928 18.7136 8.21762 18.6507 8.05721C18.5879 7.8968 18.4925 7.75112 18.3707 7.6293C18.2489 7.50748 18.1032 7.41216 17.9428 7.34932C17.7824 7.28647 17.6107 7.25747 17.4386 7.26412C17.2665 7.27076 17.0975 7.31293 16.9425 7.38796C16.7874 7.46299 16.6495 7.56926 16.5374 7.70011L12.9999 11.2376L9.46242 7.70011C9.22329 7.49533 8.91569 7.38832 8.6011 7.40047C8.2865 7.41263 7.98808 7.54304 7.76546 7.76566C7.54284 7.98828 7.41243 8.2867 7.40028 8.6013C7.38813 8.91589 7.49513 9.22349 7.69992 9.46261L11.2374 13.0001L7.69992 16.5376C7.4671 16.7718 7.33643 17.0886 7.33643 17.4189C7.33643 17.7491 7.4671 18.0659 7.69992 18.3001C7.93412 18.5329 8.25093 18.6636 8.58117 18.6636C8.9114 18.6636 9.22821 18.5329 9.46242 18.3001L12.9999 14.7626L16.5374 18.3001C16.7716 18.5329 17.0884 18.6636 17.4187 18.6636C17.7489 18.6636 18.0657 18.5329 18.2999 18.3001C18.5327 18.0659 18.6634 17.7491 18.6634 17.4189C18.6634 17.0886 18.5327 16.7718 18.2999 16.5376L14.7624 13.0001Z" fill="#3E97FF"/>
</svg>
