<svg width="20" height="20" viewBox="0 0 20 20" fill="none" xmlns="http://www.w3.org/2000/svg">
<path d="M18.75 5.61133H17.8125V4.86914C17.8125 4.6205 17.7137 4.38204 17.5379 4.20623C17.3621 4.03041 17.1236 3.93164 16.875 3.93164H5.42969V1.7832C5.42969 1.70032 5.46261 1.62084 5.52122 1.56223C5.57982 1.50363 5.65931 1.4707 5.74219 1.4707H14.2578C14.3407 1.4707 14.4202 1.50363 14.4788 1.56223C14.5374 1.62084 14.5703 1.70032 14.5703 1.7832V3.18945C14.5703 3.27233 14.6032 3.35182 14.6618 3.41042C14.7204 3.46903 14.7999 3.50195 14.8828 3.50195C14.9657 3.50195 15.0452 3.46903 15.1038 3.41042C15.1624 3.35182 15.1953 3.27233 15.1953 3.18945V1.7832C15.1953 1.53456 15.0965 1.29611 14.9207 1.12029C14.7449 0.944475 14.5065 0.845703 14.2578 0.845703H5.74219C5.49355 0.845703 5.25509 0.944475 5.07927 1.12029C4.90346 1.29611 4.80469 1.53456 4.80469 1.7832V3.93164H3.125C2.87636 3.93164 2.6379 4.03041 2.46209 4.20623C2.28627 4.38204 2.1875 4.6205 2.1875 4.86914V5.61133H1.25C0.918479 5.61133 0.600537 5.74302 0.366117 5.97744C0.131696 6.21187 0 6.52981 0 6.86133L0 16.627C0 16.9585 0.131696 17.2764 0.366117 17.5108C0.600537 17.7453 0.918479 17.877 1.25 17.877H2.1875V18.6191C2.1875 18.8678 2.28627 19.1062 2.46209 19.2821C2.6379 19.4579 2.87636 19.5566 3.125 19.5566H16.875C17.1236 19.5566 17.3621 19.4579 17.5379 19.2821C17.7137 19.1062 17.8125 18.8678 17.8125 18.6191V17.877H18.75C19.0815 17.877 19.3995 17.7453 19.6339 17.5108C19.8683 17.2764 20 16.9585 20 16.627V6.86133C20 6.52981 19.8683 6.21187 19.6339 5.97744C19.3995 5.74302 19.0815 5.61133 18.75 5.61133ZM1.25 17.252C1.08424 17.252 0.925268 17.1861 0.808058 17.0689C0.690848 16.9517 0.625 16.7927 0.625 16.627V6.86133C0.625 6.69557 0.690848 6.5366 0.808058 6.41939C0.925268 6.30218 1.08424 6.23633 1.25 6.23633H2.1875V17.252H1.25ZM17.1875 18.6191C17.1875 18.702 17.1546 18.7815 17.096 18.8401C17.0374 18.8987 16.9579 18.9316 16.875 18.9316H3.125C3.04212 18.9316 2.96263 18.8987 2.90403 18.8401C2.84542 18.7815 2.8125 18.702 2.8125 18.6191V4.86914C2.8125 4.78626 2.84542 4.70677 2.90403 4.64817C2.96263 4.58956 3.04212 4.55664 3.125 4.55664H16.875C16.9579 4.55664 17.0374 4.58956 17.096 4.64817C17.1546 4.70677 17.1875 4.78626 17.1875 4.86914V18.6191ZM19.375 16.627C19.375 16.7927 19.3092 16.9517 19.1919 17.0689C19.0747 17.1861 18.9158 17.252 18.75 17.252H17.8125V6.23633H18.75C18.9158 6.23633 19.0747 6.30218 19.1919 6.41939C19.3092 6.5366 19.375 6.69557 19.375 6.86133V16.627Z" fill="black"/>
<path d="M9.17969 1.86133C9.09681 1.86133 9.01732 1.89425 8.95872 1.95286C8.90011 2.01146 8.86719 2.09095 8.86719 2.17383V3.18945C8.86719 3.27233 8.90011 3.35182 8.95872 3.41042C9.01732 3.46903 9.09681 3.50195 9.17969 3.50195H10.8203C10.9032 3.50195 10.9827 3.46903 11.0413 3.41042C11.0999 3.35182 11.1328 3.27233 11.1328 3.18945V2.17383C11.1328 2.09095 11.0999 2.01146 11.0413 1.95286C10.9827 1.89425 10.9032 1.86133 10.8203 1.86133H9.17969ZM10.5078 2.87695H9.49219V2.48633H10.5078V2.87695Z" fill="black"/>
<path d="M12.3047 1.86133H12.1875C12.1046 1.86133 12.0251 1.89425 11.9665 1.95286C11.9079 2.01146 11.875 2.09095 11.875 2.17383C11.875 2.25671 11.9079 2.33619 11.9665 2.3948C12.0251 2.4534 12.1046 2.48633 12.1875 2.48633H12.3047C12.3876 2.48633 12.4671 2.4534 12.5257 2.3948C12.5843 2.33619 12.6172 2.25671 12.6172 2.17383C12.6172 2.09095 12.5843 2.01146 12.5257 1.95286C12.4671 1.89425 12.3876 1.86133 12.3047 1.86133Z" fill="black"/>
<path d="M12.3047 2.87695H12.1875C12.1046 2.87695 12.0251 2.90988 11.9665 2.96848C11.9079 3.02709 11.875 3.10657 11.875 3.18945C11.875 3.27233 11.9079 3.35182 11.9665 3.41042C12.0251 3.46903 12.1046 3.50195 12.1875 3.50195H12.3047C12.3876 3.50195 12.4671 3.46903 12.5257 3.41042C12.5843 3.35182 12.6172 3.27233 12.6172 3.18945C12.6172 3.10657 12.5843 3.02709 12.5257 2.96848C12.4671 2.90988 12.3876 2.87695 12.3047 2.87695Z" fill="black"/>
<path d="M7.8125 1.86133H7.69531C7.61243 1.86133 7.53295 1.89425 7.47434 1.95286C7.41574 2.01146 7.38281 2.09095 7.38281 2.17383C7.38281 2.25671 7.41574 2.33619 7.47434 2.3948C7.53295 2.4534 7.61243 2.48633 7.69531 2.48633H7.8125C7.89538 2.48633 7.97487 2.4534 8.03347 2.3948C8.09208 2.33619 8.125 2.25671 8.125 2.17383C8.125 2.09095 8.09208 2.01146 8.03347 1.95286C7.97487 1.89425 7.89538 1.86133 7.8125 1.86133Z" fill="black"/>
<path d="M7.8125 2.87695H7.69531C7.61243 2.87695 7.53295 2.90988 7.47434 2.96848C7.41574 3.02709 7.38281 3.10657 7.38281 3.18945C7.38281 3.27233 7.41574 3.35182 7.47434 3.41042C7.53295 3.46903 7.61243 3.50195 7.69531 3.50195H7.8125C7.89538 3.50195 7.97487 3.46903 8.03347 3.41042C8.09208 3.35182 8.125 3.27233 8.125 3.18945C8.125 3.10657 8.09208 3.02709 8.03347 2.96848C7.97487 2.90988 7.89538 2.87695 7.8125 2.87695Z" fill="black"/>
<path d="M14.8633 10.1473C14.8715 10.1723 14.8793 10.1973 14.8871 10.2223C14.9069 10.286 14.9465 10.3417 15.0002 10.3813C15.0539 10.4209 15.1189 10.4422 15.1856 10.4422C15.2171 10.4422 15.2485 10.4373 15.2785 10.4278C15.3575 10.4031 15.4235 10.3481 15.462 10.2749C15.5005 10.2017 15.5085 10.1162 15.484 10.0371C15.4754 10.009 15.4664 9.98127 15.4571 9.95315C15.4442 9.91416 15.4239 9.87808 15.3971 9.84697C15.3703 9.81586 15.3377 9.79033 15.301 9.77183C15.2644 9.75333 15.2245 9.74223 15.1836 9.73916C15.1426 9.73609 15.1015 9.74111 15.0625 9.75393C15.0235 9.76675 14.9875 9.78713 14.9563 9.8139C14.9252 9.84067 14.8997 9.8733 14.8812 9.90994C14.8627 9.94657 14.8516 9.98649 14.8485 10.0274C14.8455 10.0683 14.8505 10.1095 14.8633 10.1485V10.1473Z" fill="black"/>
<path d="M15.7348 11.4478C15.7306 11.3649 15.6936 11.2871 15.632 11.2315C15.5705 11.1758 15.4893 11.1469 15.4064 11.1511C15.3236 11.1553 15.2457 11.1923 15.1901 11.2539C15.1345 11.3154 15.1056 11.3966 15.1098 11.4795C15.1141 11.567 15.1164 11.656 15.1164 11.7439C15.1175 12.9929 14.6597 14.1989 13.8301 15.1326L12.5289 13.8314C13.0147 13.2442 13.2804 12.506 13.2804 11.7439C13.2804 10.9818 13.0147 10.2436 12.5289 9.65641L13.8316 8.35329C14.0856 8.64018 14.3067 8.95465 14.4906 9.29079C14.533 9.35833 14.5996 9.40711 14.6768 9.42715C14.754 9.44719 14.8359 9.43697 14.9058 9.39858C14.9757 9.36019 15.0282 9.29654 15.0527 9.22065C15.0772 9.14477 15.0718 9.0624 15.0375 8.9904C14.825 8.60254 14.5685 8.24051 14.273 7.91149L14.8477 7.33688C14.9063 7.27824 14.9392 7.19871 14.9392 7.11579C14.9392 7.03286 14.9063 6.95333 14.8477 6.89469C14.789 6.83605 14.7095 6.80311 14.6266 6.80311C14.5436 6.80311 14.4641 6.83605 14.4055 6.89469L13.8309 7.4693C12.7779 6.52443 11.4129 6.00201 9.99818 6.00244C8.58344 6.00287 7.21877 6.52613 6.1664 7.47165L5.58984 6.89469C5.5312 6.83605 5.45167 6.80311 5.36874 6.80311C5.28582 6.80311 5.20629 6.83605 5.14765 6.89469C5.08901 6.95333 5.05607 7.03286 5.05607 7.11579C5.05607 7.19871 5.08901 7.27824 5.14765 7.33688L5.7246 7.91344C4.77874 8.96538 4.25543 10.33 4.25543 11.7447C4.25543 13.1593 4.77874 14.524 5.7246 15.5759L5.14765 16.1525C5.08901 16.2111 5.05607 16.2907 5.05607 16.3736C5.05607 16.4565 5.08901 16.5361 5.14765 16.5947C5.20629 16.6533 5.28582 16.6863 5.36874 16.6863C5.45167 16.6863 5.5312 16.6533 5.58984 16.5947L6.1664 16.0177C7.21834 16.9636 8.583 17.4869 9.99765 17.4869C11.4123 17.4869 12.777 16.9636 13.8289 16.0177L14.4055 16.5947C14.4641 16.6533 14.5436 16.6863 14.6266 16.6863C14.7095 16.6863 14.789 16.6533 14.8477 16.5947C14.9063 16.5361 14.9392 16.4565 14.9392 16.3736C14.9392 16.2907 14.9063 16.2111 14.8477 16.1525L14.2707 15.5759C15.2185 14.5247 15.7428 13.1593 15.7422 11.7439C15.7422 11.6455 15.7398 11.5459 15.7348 11.4478ZM12.6562 11.7439C12.6567 12.3404 12.4553 12.9194 12.0848 13.3869L10.4418 11.7439L12.0848 10.1009C12.4553 10.5684 12.6567 11.1474 12.6562 11.7439ZM9.5582 11.7439L7.91523 13.3869C7.54509 12.9192 7.3437 12.3403 7.3437 11.7439C7.3437 11.1475 7.54509 10.5686 7.91523 10.1009L9.5582 11.7439ZM8.35703 9.65915C8.82467 9.289 9.40359 9.08761 9.99999 9.08761C10.5964 9.08761 11.1753 9.289 11.643 9.65915L9.99999 11.3021L8.35703 9.65915ZM9.99999 12.1857L11.643 13.8287C11.1753 14.1988 10.5964 14.4002 9.99999 14.4002C9.40359 14.4002 8.82467 14.1988 8.35703 13.8287L9.99999 12.1857ZM9.99999 6.62672C11.2491 6.62679 12.4551 7.08375 13.3906 7.91149L12.0875 9.21422C11.5003 8.72847 10.7621 8.46271 9.99999 8.46271C9.23792 8.46271 8.4997 8.72847 7.91249 9.21422L6.61132 7.91305C7.54504 7.08343 8.75096 6.62567 9.99999 6.62672ZM4.88281 11.7439C4.88175 10.4949 5.33951 9.28895 6.16914 8.35524L7.47031 9.65641C6.98456 10.2436 6.71879 10.9818 6.71879 11.7439C6.71879 12.506 6.98456 13.2442 7.47031 13.8314L6.16914 15.1326C5.33951 14.1989 4.88175 12.9929 4.88281 11.7439ZM9.99999 16.8611C8.75096 16.8622 7.54504 16.4044 6.61132 15.5748L7.91249 14.2736C8.4997 14.7593 9.23792 15.0251 9.99999 15.0251C10.7621 15.0251 11.5003 14.7593 12.0875 14.2736L13.3887 15.5748C12.455 16.4044 11.249 16.8622 9.99999 16.8611Z" fill="black"/>
</svg>
