<svg width="80" height="80" viewBox="0 0 80 80" fill="none" xmlns="http://www.w3.org/2000/svg">
<g id="Logo">
<g id="svgg">
<path id="path0" fill-rule="evenodd" clip-rule="evenodd" d="M41.9464 10.8775C40.9752 11.0039 40.307 11.1355 40.0904 11.2429C39.9716 11.3019 39.8034 11.3501 39.7168 11.3501C39.6302 11.3501 39.4574 11.4001 39.3328 11.4613C39.2084 11.5223 38.8904 11.6699 38.6264 11.7893C37.9512 12.0945 37.1458 12.6385 36.3064 13.3565C35.448 14.0905 30.9064 18.6693 30.9064 18.8005C30.9064 18.9073 31.7108 18.8363 31.9496 18.7085C32.03 18.6653 32.2428 18.6301 32.4224 18.6301C32.602 18.6301 32.9552 18.5783 33.2076 18.5153C34.6834 18.1457 37.8636 18.1463 39.6562 18.5165C39.9586 18.5789 40.3248 18.6301 40.4698 18.6301C40.6148 18.6301 40.9614 18.6841 41.24 18.7499C41.5184 18.8159 41.9084 18.9037 42.1064 18.9453C42.91 19.1135 43.591 19.2897 43.6664 19.3487C43.7104 19.3831 43.8724 19.4293 44.0264 19.4515C44.3034 19.4915 45.523 19.9025 45.9864 20.1121C46.1184 20.1719 46.4564 20.3123 46.7376 20.4243C48.7928 21.2431 51.4778 23.3107 52.8794 25.1539C53.667 26.1897 54.9002 28.5337 54.909 29.0117C54.9104 29.0879 54.9644 29.2199 55.029 29.3053C55.0936 29.3909 55.1464 29.5821 55.1464 29.7307C55.1464 29.8791 55.1844 30.0715 55.2308 30.1583C55.6284 30.9013 55.6298 34.5797 55.2328 35.6153C55.1852 35.7391 55.1464 35.9227 55.1464 36.0231C55.1464 36.1233 55.096 36.3101 55.0342 36.4379C54.363 37.8273 54.994 39.5947 57.2302 42.5887C58.6736 44.5215 58.5896 45.0581 56.6962 45.9951C55.4556 46.6091 55.5044 46.5451 55.616 47.4163C55.7734 48.6441 55.6688 49.2741 55.223 49.7817C54.9418 50.1019 54.9386 50.1441 55.15 50.7113C55.4008 51.3841 55.4194 51.3367 54.6864 51.8963C53.7428 52.6165 53.8066 52.4756 53.6434 54.2006C53.439 56.3614 53.0802 56.8697 51.3864 57.3963C50.808 57.5763 48.7274 57.5471 47.7864 57.3459C44.5436 56.6527 42.6302 57.0643 40.7208 58.8653C39.8096 59.7249 39.33 60.4909 38.589 62.2701C38.4162 62.6849 38.0282 64.0221 38.0274 64.2063C38.0268 64.3033 37.9896 64.4653 37.9446 64.5663C37.8996 64.6675 37.8176 65.3183 37.7622 66.0127C37.6464 67.4685 37.6012 67.3515 38.469 67.8391C39.3862 68.3543 40.5278 68.7901 40.9602 68.7901C41.0584 68.7901 41.346 68.8441 41.5994 68.9101C42.1224 69.0463 43.2502 69.0629 43.7864 68.9421C43.9844 68.8975 44.3264 68.8301 44.5464 68.7925C45.4906 68.6309 46.5156 68.2871 47.3864 67.8399C48.6006 67.2163 48.9668 66.8955 52.6484 63.2333C68.3934 47.5703 69.6874 46.2663 70.1168 45.6301C73.0062 41.3491 72.556 36.5475 68.9102 32.7631C66.3134 30.0675 49.2968 13.1353 48.831 12.7835C48.5424 12.5655 47.9284 12.2019 47.4664 11.9755C47.0044 11.7491 46.5546 11.5279 46.467 11.4841C46.3794 11.4403 46.1994 11.3759 46.067 11.3409C45.9346 11.3059 45.6104 11.2207 45.3464 11.1519C44.8266 11.0161 43.0956 10.7857 42.7064 10.8007C42.5744 10.8057 42.2324 10.8403 41.9464 10.8775ZM21.4664 14.8239C20.519 15.2109 20.116 15.5691 15.9664 19.7133C13.7114 21.9653 11.8664 23.8551 11.8664 23.9127C11.8664 23.9703 11.8198 24.0743 11.7628 24.1439C11.1308 24.9139 11.2054 26.9355 11.9062 28.0301C12.2294 28.5349 20.2642 36.5501 20.4472 36.5501C20.469 36.5501 20.5056 35.6771 20.5284 34.6101C20.6082 30.9091 20.8816 29.4123 21.8622 27.3095C22.0404 26.9271 22.1864 26.6003 22.1864 26.5833C22.1864 26.5239 22.6934 25.7035 23.1956 24.9501C24.4696 23.0389 26.4308 21.1897 28.3588 20.0817C28.7196 19.8743 29.0276 19.6663 29.0432 19.6195C29.087 19.4885 25.5328 15.8933 24.9242 15.4525C23.9942 14.7791 23.5704 14.6281 22.6366 14.6371C22.0754 14.6427 21.8046 14.6859 21.4664 14.8239ZM33.7434 24.2301C33.3138 24.4427 32.1928 25.4325 31.0918 26.5711C29.1632 28.5655 29.204 28.8877 31.6974 31.3337C34.2228 33.8111 34.2828 33.8075 37.0394 31.0103C39.3052 28.7111 39.3024 28.6271 36.874 26.1643C34.9072 24.1695 34.444 23.8833 33.7434 24.2301ZM12.5468 35.0053C12.1734 35.1085 11.5718 35.6297 10.0342 37.1821C7.30938 39.9335 7.31058 40.0547 10.0938 42.8213C13.094 45.8037 13.0542 45.8059 16.2686 42.5071C18.7378 39.9729 18.7372 39.9657 15.7722 37.0143C13.8658 35.1167 13.3364 34.7869 12.5468 35.0053ZM28.5828 35.9801C27.4786 36.3749 27.4576 36.3933 22.88 40.9453C19.2988 44.5067 18.1892 45.6955 18.1872 45.9729C18.1868 46.0295 18.127 46.1665 18.0542 46.2775C17.9494 46.4373 17.9204 46.6977 17.9142 47.5347L17.9064 48.5901L18.2502 49.2901C18.829 50.4683 26.9424 58.4849 28.0886 59.0111C28.878 59.3733 30.402 59.3267 31.2664 58.9139C31.9454 58.5895 39.845 50.8937 40.5496 49.8701C41.456 48.5531 41.449 46.6521 40.5328 45.3501C40.21 44.8913 32.4414 37.1315 31.9034 36.7305C30.8128 35.9173 29.554 35.6329 28.5828 35.9801Z" fill="url(#paint0_linear_136_1496)"/>
</g>
</g>
<defs>
<linearGradient id="paint0_linear_136_1496" x1="8.09841" y1="40" x2="72.2984" y2="39.9" gradientUnits="userSpaceOnUse">
<stop stop-color="#0640A3"/>
<stop offset="0.205" stop-color="#026DB5"/>
</linearGradient>
</defs>
</svg>
