<svg width="16" height="17" viewBox="0 0 16 17" fill="none" xmlns="http://www.w3.org/2000/svg">
<g clip-path="url(#clip0_917_2006)">
<path d="M8.79721 7.52048C9.73929 9.02144 9.77465 10.9067 8.88969 12.4403C8.00841 13.9669 6.40361 14.8214 4.75561 14.8214C3.94777 14.8214 3.12969 14.6162 2.38105 14.184C0.106173 12.8704 -0.676067 9.95072 0.637213 7.67552C1.95081 5.40064 4.87065 4.6184 7.14585 5.93168C7.27769 6.00848 7.40409 6.08976 7.52281 6.1736L7.27577 6.5232C7.16713 6.44656 7.05113 6.372 6.93097 6.30192C4.86089 5.10704 2.20345 5.81904 1.00793 7.88944C-0.187427 9.96032 0.524573 12.6178 2.59497 13.8133C3.27625 14.2066 4.02105 14.3934 4.75625 14.3934C6.25625 14.3934 7.71673 13.6158 8.51881 12.2262C9.32441 10.8304 9.29209 9.1144 8.43449 7.748L8.79721 7.52048ZM7.99945 9.19104C8.23097 10.0555 8.11193 10.9584 7.66425 11.7333C7.21705 12.5082 6.49465 13.0624 5.63017 13.2941C5.34153 13.3715 5.04841 13.4098 4.75737 13.4098C4.17689 13.4098 3.60409 13.2576 3.08793 12.9597C1.48873 12.0358 0.938653 9.98256 1.86137 8.38256C1.86137 8.38256 1.86137 8.3824 1.86153 8.3824C2.30921 7.60752 3.03193 7.05312 3.89641 6.82176C4.76089 6.59024 5.66393 6.70928 6.43881 7.15696C7.21369 7.60416 7.76793 8.32656 7.99945 9.19104ZM7.58601 9.30176C7.38409 8.54784 6.90057 7.91776 6.22473 7.52768C5.54873 7.13712 4.76121 7.03344 4.00713 7.2352C3.25305 7.43712 2.62265 7.92064 2.23225 8.59648L2.23241 8.59632C1.42729 9.992 1.90729 11.783 3.30217 12.589C3.97801 12.979 4.76569 13.0826 5.51961 12.8806C6.27369 12.6786 6.90377 12.195 7.29369 11.5192C7.68409 10.8432 7.78793 10.0558 7.58601 9.30176ZM5.90201 10.1195C6.12217 10.2971 6.26345 10.569 6.26345 10.8733C6.26345 11.3693 5.88809 11.779 5.40649 11.8339V12.3872H4.97833V11.8405H4.67513V12.3872H4.24713V11.8405H3.99065H3.38585V11.4125H3.77657V10.1197V8.82688H3.38585V8.39888H3.99065H4.24713V7.85296H4.67513V8.39888H4.97833V7.85296H5.40633V8.40528C5.88793 8.46016 6.26329 8.87024 6.26329 9.36672C6.26329 9.67056 6.12217 9.94208 5.90201 10.1195ZM5.29625 10.3334H4.20441V11.4122H4.46089H5.29625C5.59337 11.4122 5.83513 11.1704 5.83513 10.8733C5.83529 10.5755 5.59353 10.3334 5.29625 10.3334ZM5.29625 9.90528C5.59337 9.90528 5.83513 9.66352 5.83513 9.3664C5.83513 9.06864 5.59337 8.82656 5.29625 8.82656H4.46089H4.20441V9.90528H5.29625ZM15.3262 11.5523C15.2057 11.6309 15.0702 11.6683 14.9359 11.6683C14.7022 11.6683 14.4727 11.5542 14.3358 11.3448L11.0551 6.32704C10.9967 6.3608 10.9316 6.3784 10.8652 6.3784C10.8385 6.3784 10.8116 6.37552 10.7849 6.36992C10.6846 6.34864 10.5987 6.28944 10.5431 6.20336L10.4265 6.0248L8.88201 7.03424C8.54601 7.2544 8.27721 7.56224 8.10457 7.92448C8.06889 7.9992 7.99353 8.0464 7.91145 8.04656C7.90777 8.04656 7.90409 8.0464 7.90057 8.04624C7.81417 8.04192 7.73897 7.98592 7.70985 7.90448C7.52969 7.39968 7.52329 6.83872 7.69193 6.32496C7.86329 5.80256 8.21017 5.34992 8.66857 5.0504L9.45353 4.53648L9.34137 4.3648C9.28537 4.28048 9.26585 4.17776 9.28697 4.0768C9.30649 3.98368 9.35881 3.90336 9.43449 3.848L9.20281 3.49408C8.98729 3.16352 9.08057 2.71936 9.41033 2.50368C9.56969 2.39952 9.76057 2.36352 9.94809 2.40256C10.1358 2.4416 10.2964 2.55088 10.4007 2.71024L10.6324 3.06464C10.7142 3.0176 10.8091 3.00208 10.902 3.02176C11.0027 3.04288 11.0886 3.10192 11.1441 3.188L11.2558 3.35872L12.0412 2.84496C12.4993 2.54528 13.0531 2.4096 13.6003 2.46208C14.1387 2.51392 14.6502 2.74496 15.0406 3.11264C15.1036 3.172 15.1247 3.26336 15.094 3.34432C15.0633 3.42528 14.987 3.47968 14.9004 3.4824C14.4988 3.49456 14.1089 3.61712 13.7727 3.8368L12.2283 4.84624L12.3462 5.02656C12.4022 5.11088 12.4217 5.2136 12.4006 5.31456C12.3811 5.40784 12.3287 5.488 12.2529 5.54352L15.5332 10.5618C15.7489 10.8922 15.6563 11.3365 15.3262 11.5523ZM11.4899 3.71728L11.9939 4.48816L13.5383 3.47872C13.7852 3.31744 14.0564 3.2 14.3401 3.12992C13.7025 2.78224 12.8979 2.79632 12.2753 3.20368L11.4899 3.71728ZM9.56121 3.26032L9.79225 3.61328L10.2735 3.29856L10.0425 2.94496C10.0009 2.88144 9.93641 2.83776 9.86089 2.82208C9.78537 2.8064 9.70857 2.82064 9.64473 2.86224C9.51209 2.94896 9.47465 3.12752 9.56121 3.26032ZM10.1923 5.66656L9.68777 4.89488L8.90297 5.40864C8.27961 5.816 7.94345 6.54736 8.00633 7.27056C8.18441 7.03904 8.40089 6.83776 8.64761 6.676L10.1923 5.66656ZM10.8777 5.93264L11.9628 5.22304L10.8097 3.45936L9.72457 4.16896L10.8777 5.93264ZM15.1747 10.7963L11.895 5.77872L11.4139 6.09328L14.6942 11.1104C14.7809 11.2429 14.9595 11.2803 15.0923 11.1938C15.2244 11.1075 15.2615 10.929 15.1747 10.7963ZM7.33897 5.23264L6.19609 4.45968L5.95625 4.81424L7.09913 5.5872L7.33897 5.23264ZM8.57769 4.51936L8.36713 3.19616L7.94441 3.26352L8.15497 4.58672L8.57769 4.51936ZM7.91513 4.66688L7.05561 3.57248L6.71897 3.83696L7.57849 4.93136L7.91513 4.66688Z" fill="black"/>
</g>
<defs>
<clipPath id="clip0_917_2006">
<rect width="15.6496" height="16.4342" fill="white" transform="translate(0 0.387207)"/>
</clipPath>
</defs>
</svg>
